<svg xmlns="http://www.w3.org/2000/svg" width="470" height="470" viewBox="0 0 470 470" fill="none">

<g id="thinking_rocky" opacity="1" visibility="visible" display="inline" fill="none" fill-rule="nonzero" stroke="none" stroke-width="1px" stroke-linecap="butt" stroke-linejoin="miter" stroke-dasharray="none" stroke-dashoffset="0px" mask-type="luminance">
<g id="head" transform="matrix(1, 0, 0, 0.961219, 45, 52.3684)" opacity="1" visibility="visible" display="inline" fill="none" fill-rule="nonzero" stroke="none" stroke-width="1px" stroke-linecap="butt" stroke-linejoin="miter" stroke-dasharray="none" stroke-dashoffset="0px" mask-type="luminance">
<path id="fill_rocky" transform="matrix(1, 0, 0, 1, -10, 0)" d="M 236.388 0.001174 C 333.629 -0.634247 432.685 256.846 389.661 338.447 C 362.362 390.223 269.235 380.672 188.155 376.502 C 107.076 372.331 10.291 377.443 1.01721 299.823 C -13.9246 174.762 139.148 0.636595 236.388 0.001174 Z" fill="rgb(255, 255, 255)" stroke="rgb(0, 0, 0)" stroke-width="27.3251px" opacity="1" visibility="visible" display="inline" fill-rule="nonzero" stroke-linecap="butt" stroke-linejoin="miter" stroke-dasharray="none" stroke-dashoffset="0px" mask-type="luminance"></path>
<g id="eyes" transform="matrix(1, 0, 0, 1, 130.521, 70.1598)" opacity="1" visibility="visible" display="inline" fill="none" fill-rule="nonzero" stroke="none" stroke-width="1px" stroke-linecap="butt" stroke-linejoin="miter" stroke-dasharray="none" stroke-dashoffset="0px" mask-type="luminance">
<g id="eye_l" clip-path="url(#thinking-lid-l)" opacity="1" visibility="visible" display="inline" fill="none" fill-rule="nonzero" stroke="none" stroke-width="1px" stroke-linecap="butt" stroke-linejoin="miter" stroke-dasharray="none" stroke-dashoffset="0px" mask-type="luminance" transform="matrix(1, 0, 0, 0.585761, 0, 19.5906)">
<path id="Vector" transform="matrix(1, 0, 0, 1, 0.0280072, 0.0000285647)" d="M 27.463 0 C 42.6315 0 54.926 21.1764 54.926 47.2929 C 54.926 73.4094 42.6315 94.5858 27.463 94.5858 C 12.2946 94.5858 0 73.4094 0 47.2929 C 0 21.1764 12.2946 0 27.463 0 Z" fill="rgb(0, 0, 0)" mask="url(#cutout-l)" opacity="1" visibility="visible" display="inline" fill-rule="nonzero" stroke="none" stroke-width="1px" stroke-linecap="butt" stroke-linejoin="miter" stroke-dasharray="none" stroke-dashoffset="0px" mask-type="luminance"></path>
<mask id="cutout-l" maskUnits="userSpaceOnUse" maskContentUnits="userSpaceOnUse" x="-100" y="-100" width="300" height="300" opacity="1" visibility="visible" display="inline" fill="none" fill-rule="nonzero" stroke="none" stroke-width="1px" stroke-linecap="butt" stroke-linejoin="miter" stroke-dasharray="none" stroke-dashoffset="0px" mask-type="luminance"><rect x="-100" y="-100" width="300" height="300" fill="rgb(255, 255, 255)" opacity="1" visibility="visible" display="inline" fill-rule="nonzero" stroke="none" stroke-width="1px" stroke-linecap="butt" stroke-linejoin="miter" stroke-dasharray="none" stroke-dashoffset="0px" mask-type="luminance"></rect><g opacity="1" visibility="visible" display="inline" fill="none" fill-rule="nonzero" stroke="none" stroke-width="1px" stroke-linecap="butt" stroke-linejoin="miter" stroke-dasharray="none" stroke-dashoffset="0px" mask-type="luminance">
<g id="Group" transform="matrix(1, 0, 0, 1, -19.4184, 27.507)" opacity="1" visibility="visible" display="inline" fill="none" fill-rule="nonzero" stroke="none" stroke-width="1px" stroke-linecap="butt" stroke-linejoin="miter" stroke-dasharray="none" stroke-dashoffset="0px" mask-type="luminance">
<path id="Vector_3" transform="matrix(0, 1, -1, 0, 38.8368, 0.0000220346)" d="M 20.0021 0 L 40.0041 38.8366 H 0 L 20.0021 0 Z" fill="rgb(0, 0, 0)" opacity="1" visibility="visible" display="inline" fill-rule="nonzero" stroke="none" stroke-width="1px" stroke-linecap="butt" stroke-linejoin="miter" stroke-dasharray="none" stroke-dashoffset="0px" mask-type="luminance"></path>
</g>
</g>
</mask><clipPath id="thinking-lid-l" clipPathUnits="userSpaceOnUse" opacity="1" visibility="visible" display="inline" fill="none" fill-rule="nonzero" stroke="none" stroke-width="1px" stroke-linecap="butt" stroke-linejoin="miter" stroke-dasharray="none" stroke-dashoffset="0px" mask-type="luminance"><path class="lid-l" d="M -12 -4.77351 Q 27 -2.36468 68 -0.758791 L 68 110 L -12 110 Z" opacity="1" visibility="visible" display="inline" fill="none" fill-rule="nonzero" stroke="none" stroke-width="1px" stroke-linecap="butt" stroke-linejoin="miter" stroke-dasharray="none" stroke-dashoffset="0px" mask-type="luminance"></path></clipPath></g>
<g id="eye_r" transform="matrix(1, 0, 0, 0.585761, 110.962, 19.5906)" clip-path="url(#thinking-lid-r)" opacity="1" visibility="visible" display="inline" fill="none" fill-rule="nonzero" stroke="none" stroke-width="1px" stroke-linecap="butt" stroke-linejoin="miter" stroke-dasharray="none" stroke-dashoffset="0px" mask-type="luminance">
<path id="Vector_4" transform="matrix(1, 0, 0, 1, 0.0275791, 0.0000339287)" d="M 27.463 0 C 42.6315 0 54.926 21.1764 54.926 47.2929 C 54.926 73.4094 42.6315 94.5858 27.463 94.5858 C 12.2946 94.5858 0 73.4094 0 47.2929 C 0 21.1764 12.2946 0 27.463 0 Z" fill="rgb(0, 0, 0)" mask="url(#cutout-r)" opacity="1" visibility="visible" display="inline" fill-rule="nonzero" stroke="none" stroke-width="1px" stroke-linecap="butt" stroke-linejoin="miter" stroke-dasharray="none" stroke-dashoffset="0px" mask-type="luminance"></path>
<mask id="cutout-r" maskUnits="userSpaceOnUse" maskContentUnits="userSpaceOnUse" x="-100" y="-100" width="300" height="300" opacity="1" visibility="visible" display="inline" fill="none" fill-rule="nonzero" stroke="none" stroke-width="1px" stroke-linecap="butt" stroke-linejoin="miter" stroke-dasharray="none" stroke-dashoffset="0px" mask-type="luminance"><rect x="-100" y="-100" width="300" height="300" fill="rgb(255, 255, 255)" opacity="1" visibility="visible" display="inline" fill-rule="nonzero" stroke="none" stroke-width="1px" stroke-linecap="butt" stroke-linejoin="miter" stroke-dasharray="none" stroke-dashoffset="0px" mask-type="luminance"></rect><g opacity="1" visibility="visible" display="inline" fill="none" fill-rule="nonzero" stroke="none" stroke-width="1px" stroke-linecap="butt" stroke-linejoin="miter" stroke-dasharray="none" stroke-dashoffset="0px" mask-type="luminance">
<g id="Group_2" transform="matrix(1, 0, 0, 1, -19.4184, 27.507)" opacity="1" visibility="visible" display="inline" fill="none" fill-rule="nonzero" stroke="none" stroke-width="1px" stroke-linecap="butt" stroke-linejoin="miter" stroke-dasharray="none" stroke-dashoffset="0px" mask-type="luminance">
<path id="Vector_6" transform="matrix(-0.000203673, 1, -1, -0.000203673, 38.836, 0)" d="M 20.0021 0 L 40.0041 38.8366 H 0 L 20.0021 0 Z" fill="rgb(0, 0, 0)" opacity="1" visibility="visible" display="inline" fill-rule="nonzero" stroke="none" stroke-width="1px" stroke-linecap="butt" stroke-linejoin="miter" stroke-dasharray="none" stroke-dashoffset="0px" mask-type="luminance"></path>
</g>
</g>
</mask><clipPath id="thinking-lid-r" clipPathUnits="userSpaceOnUse" opacity="1" visibility="visible" display="inline" fill="none" fill-rule="nonzero" stroke="none" stroke-width="1px" stroke-linecap="butt" stroke-linejoin="miter" stroke-dasharray="none" stroke-dashoffset="0px" mask-type="luminance"><path class="lid-r" d="M -12 3.92159 Q 27 7.59581 68 5.7587 L 68 110 L -12 110 Z" opacity="1" visibility="visible" display="inline" fill="none" fill-rule="nonzero" stroke="none" stroke-width="1px" stroke-linecap="butt" stroke-linejoin="miter" stroke-dasharray="none" stroke-dashoffset="0px" mask-type="luminance"></path></clipPath></g>
<g id="lash_r" transform="matrix(0.92983, 0, 0, 1, 2.24542, 0)" opacity="1" visibility="visible" display="inline" fill="none" fill-rule="nonzero" stroke="none" stroke-width="24px" stroke-linecap="butt" stroke-linejoin="miter" stroke-dasharray="none" stroke-dashoffset="0px" mask-type="luminance"><mask id="brow-thickness-r" maskUnits="userSpaceOnUse" maskContentUnits="userSpaceOnUse" x="-30" y="-40" width="130" height="100" opacity="1" visibility="visible" display="inline" fill="none" fill-rule="nonzero" stroke="none" stroke-width="24px" stroke-linecap="butt" stroke-linejoin="miter" stroke-dasharray="none" stroke-dashoffset="0px" mask-type="luminance"><path d="M 0 17 C 15 7 27 -1 39 0 C 49 1 57 8 64 17" fill="none" stroke="rgb(255, 255, 255)" stroke-linecap="round" opacity="1" visibility="visible" display="inline" fill-rule="nonzero" stroke-width="24px" stroke-linejoin="miter" stroke-dasharray="none" stroke-dashoffset="0px" mask-type="luminance"></path></mask><path d="M -1.95274 15.2457 C -2.25811 15.8044 -2.43103 16.4479 -2.3695 17.0922 C -2.30837 17.7361 -2.02403 18.3225 -1.56141 18.7381 C -1.09879 19.1537 -0.48544 19.3738 0.161339 19.3658 C 0.808509 19.3582 1.42989 19.1175 1.95274 18.7543 C 1.95274 18.7543 1.95274 18.7543 1.95274 18.7543 C 2.98469 18.0425 3.98693 17.3901 5.02187 16.7323 C 14.2296 10.9131 23.597 7.31318 32.5388 7.01665 C 41.4421 6.6533 50.4131 9.76672 59.037 16.2936 C 60.0054 17.0273 60.9299 17.7504 61.8861 18.5563 C 62.3712 18.9686 62.9662 19.2685 63.6096 19.3389 C 64.2525 19.4097 64.8844 19.2502 65.3852 18.8815 C 65.886 18.5128 66.2259 17.9569 66.3493 17.3219 C 66.4732 16.6867 66.3636 16.0294 66.1139 15.4437 C 66.1139 15.4437 66.1139 15.4437 66.1139 15.4437 C 65.5563 14.1954 64.9816 13.0191 64.3012 11.8136 C 58.6527 1.12032 45.8585 -7.69931 32.0512 -6.97486 C 18.3002 -6.50147 6.75676 1.86845 0.152444 11.826 C -0.610545 12.9536 -1.28897 14.071 -1.95274 15.2457 Z" fill="rgb(0, 0, 0)" stroke="none" mask="url(#brow-thickness-r)" class="drawn-brow expression-r" opacity="1" visibility="visible" display="inline" fill-rule="nonzero" stroke-width="24px" stroke-linecap="butt" stroke-linejoin="miter" stroke-dasharray="none" stroke-dashoffset="0px" mask-type="luminance" transform="matrix(1, 0, 0, 1, 0, 4.86808)"></path></g><g id="lash_l" transform="matrix(0.922543, 0, 0, 1.66531, 111, -11)" opacity="1" visibility="visible" display="inline" fill="none" fill-rule="nonzero" stroke="none" stroke-width="24px" stroke-linecap="butt" stroke-linejoin="miter" stroke-dasharray="none" stroke-dashoffset="0px" mask-type="luminance"><mask id="brow-thickness-l" maskUnits="userSpaceOnUse" maskContentUnits="userSpaceOnUse" x="-30" y="-40" width="130" height="100" opacity="1" visibility="visible" display="inline" fill="none" fill-rule="nonzero" stroke="none" stroke-width="24px" stroke-linecap="butt" stroke-linejoin="miter" stroke-dasharray="none" stroke-dashoffset="0px" mask-type="luminance"><path d="M 0 11 C 15 6 27 3 39 2 C 49 1 57 2 64 3" fill="none" stroke="rgb(255, 255, 255)" stroke-linecap="round" opacity="1" visibility="visible" display="inline" fill-rule="nonzero" stroke-width="24px" stroke-linejoin="miter" stroke-dasharray="none" stroke-dashoffset="0px" mask-type="luminance"></path></mask><path d="M -1.40294 8.67053 C -1.83085 9.13489 -2.16175 9.70593 -2.27284 10.3371 C -2.38421 10.9678 -2.27099 11.6002 -1.94347 12.1181 C -1.61596 12.6361 -1.09322 13.0094 -0.475644 13.1792 C 0.142203 13.3495 0.799968 13.2953 1.40294 13.1078 C 1.40294 13.1078 1.40294 13.1078 1.40294 13.1078 C 2.47088 12.7778 3.49988 12.4792 4.55096 12.1756 C 13.9385 9.47746 22.5777 7.96708 31.4245 7.23463 C 40.2593 6.47788 49.5815 6.43971 59.5794 6.08445 C 60.6941 6.04578 61.8008 5.99974 62.9314 5.95181 C 63.5622 5.92403 64.1994 5.75218 64.7231 5.38276 C 65.2467 5.01384 65.6121 4.48548 65.7448 3.88722 C 65.8776 3.28897 65.7699 2.65565 65.4515 2.09991 C 65.1332 1.54367 64.6285 1.11844 64.0686 0.826457 C 64.0686 0.826457 64.0686 0.826457 64.0686 0.826457 C 63.0401 0.299519 62.0192 -0.202862 60.9721 -0.686292 C 51.6558 -5.01042 41.1395 -7.63661 30.2443 -6.71554 C 19.3711 -5.87516 8.774 -1.05282 1.09659 6.18815 C 0.223381 6.99521 -0.587988 7.81035 -1.40294 8.67053 Z" fill="rgb(0, 0, 0)" stroke="none" mask="url(#brow-thickness-l)" class="drawn-brow expression-l" opacity="1" visibility="visible" display="inline" fill-rule="nonzero" stroke-width="24px" stroke-linecap="butt" stroke-linejoin="miter" stroke-dasharray="none" stroke-dashoffset="0px" mask-type="luminance" transform="matrix(1, 0, 0, 1, 0, -5.4086)"></path></g><ellipse id="fold_r" opacity="1" transform="matrix(1, 0, 0, 1, 107, 77.3888)" cx="31" cy="28" rx="31" ry="28" fill="rgb(255, 255, 255)" visibility="visible" display="inline" fill-rule="nonzero" stroke="none" stroke-width="1px" stroke-linecap="butt" stroke-linejoin="miter" stroke-dasharray="none" stroke-dashoffset="0px" mask-type="luminance"></ellipse>
<ellipse id="fold_l" opacity="1" transform="matrix(1, 0, 0, 1, -4, 77.3888)" cx="31" cy="28" rx="31" ry="28" fill="rgb(255, 255, 255)" visibility="visible" display="inline" fill-rule="nonzero" stroke="none" stroke-width="1px" stroke-linecap="butt" stroke-linejoin="miter" stroke-dasharray="none" stroke-dashoffset="0px" mask-type="luminance"></ellipse>
</g>
</g>
</g>
</svg>